{"accessors":[{"bufferView":0,"byteOffset":0,"componentType":5126,"count":10028,"max":[57.0,40.0,39.98099899291992],"min":[-57.0,-40.0,-39.99530029296875],"type":"VEC3"},{"bufferView":1,"byteOffset":0,"componentType":5126,"count":10028,"max":[1.0,1.0,1.0],"min":[-1.0,-1.0,-1.0],"type":"VEC3"},{"bufferView":2,"byteOffset":0,"componentType":5126,"count":10028,"max":[1.0,1.0],"min":[0.0,0.0],"type":"VEC2"},{"bufferView":3,"byteOffset":0,"componentType":5125,"count":22032,"type":"SCALAR"},{"bufferView":4,"byteOffset":0,"componentType":5125,"count":1554,"type":"SCALAR"},{"bufferView":5,"byteOffset":0,"componentType":5125,"count":7638,"type":"SCALAR"},{"bufferView":6,"byteOffset":0,"componentType":5125,"count":1308,"type":"SCALAR"}],"asset":{"copyright":"KiM GmbH","extras":{"CADClick_SWAP_AXIS":false},"generator":"CADClick glb Export 1.7.5.1","version":"2.0"},"bufferViews":[{"buffer":0,"byteLength":120336,"byteOffset":0},{"buffer":0,"byteLength":120336,"byteOffset":120336},{"buffer":0,"byteLength":80224,"byteOffset":240672},{"buffer":0,"byteLength":88128,"byteOffset":320896},{"buffer":0,"byteLength":6216,"byteOffset":409024},{"buffer":0,"byteLength":30552,"byteOffset":415240},{"buffer":0,"byteLength":5232,"byteOffset":445792}],"buffers":[{"byteLength":451024,"uri":"data:application/octet-stream;base64,"}],"materials":[{"alphaMode":"OPAQUE","doubleSided":true,"name":"M_dAB1F1C_0_0","pbrMetallicRoughness":{"baseColorFactor":[0.4072403013706207,0.013702080585062504,0.011612244881689548,1.0],"metallicFactor":1.0,"roughnessFactor":0.0}},{"alphaMode":"OPAQUE","doubleSided":true,"name":"M_d8F949E_0_0","pbrMetallicRoughness":{"baseColorFactor":[0.2746773660182953,0.29613831639289856,0.34191444516181946,1.0],"metallicFactor":1.0,"roughnessFactor":0.0}},{"alphaMode":"OPAQUE","doubleSided":true,"name":"M_d828296_0_0","pbrMetallicRoughness":{"baseColorFactor":[0.22322797775268555,0.22322797775268555,0.304987370967865,1.0],"metallicFactor":1.0,"roughnessFactor":0.0}},{"alphaMode":"OPAQUE","doubleSided":true,"name":"M_d626262_0_0","pbrMetallicRoughness":{"baseColorFactor":[0.12213881313800812,0.12213881313800812,0.12213881313800812,1.0],"metallicFactor":1.0,"roughnessFactor":0.0}}],"meshes":[{"primitives":[{"attributes":{"NORMAL":1,"POSITION":0,"TEXCOORD_0":2},"indices":3,"material":0,"mode":4},{"attributes":{"NORMAL":1,"POSITION":0,"TEXCOORD_0":2},"indices":4,"material":1,"mode":4},{"attributes":{"NORMAL":1,"POSITION":0,"TEXCOORD_0":2},"indices":5,"material":2,"mode":4},{"attributes":{"NORMAL":1,"POSITION":0,"TEXCOORD_0":2},"indices":6,"material":3,"mode":4}]}],"nodes":[{"children":[1]},{"mesh":0,"name":"00058692_202607171415530798_0001"}],"scene":0,"scenes":[{"name":"KTR_ROTEX_GS_38____1_0__d1=35_1_0__d2=35_1","nodes":[0]}]}